# Blender v2.80 (sub 75) OBJ File: ''
# www.blender.org
mtllib Canvas.mtl
o Cube_Cube.001
v -2.996189 0.673504 -0.072513
v -2.996189 4.040726 -0.072513
v -3.321776 0.490551 -0.162603
v -3.321776 4.223679 -0.162603
v 2.996189 0.673504 -0.072513
v 2.996189 4.040726 -0.072513
v 3.321776 0.490551 -0.162603
v 3.321776 4.223679 -0.162603
v -3.321776 0.490551 0.162603
v -3.321776 4.223679 0.162603
v 3.321776 4.223679 0.162603
v 3.321776 0.490551 0.162603
v -3.014107 0.663436 0.162603
v -3.014107 4.050795 0.162603
v 3.014107 4.050795 0.162603
v 3.014107 0.663436 0.162603
vt 0.375000 0.000000
vt 0.625000 0.000000
vt 0.625000 0.250000
vt 0.375000 0.250000
vt 0.625000 0.500000
vt 0.375000 0.500000
vt 0.625000 0.750000
vt 0.375000 0.750000
vt 0.387252 0.762252
vt 0.612748 0.762252
vt 0.612748 0.987748
vt 0.387252 0.987748
vt 0.125000 0.500000
vt 0.125000 0.750000
vt 0.875000 0.500000
vt 0.875000 0.750000
vt 0.386578 0.988422
vt 0.613422 0.988422
vt 0.625000 1.000000
vt 0.375000 1.000000
vt 0.613422 0.761578
vt 0.386578 0.761578
vn -1.0000 0.0000 0.0000
vn 0.0000 0.0000 -1.0000
vn 1.0000 0.0000 0.0000
vn 0.0000 0.0000 1.0000
vn 0.0000 -1.0000 0.0000
vn 0.0000 1.0000 0.0000
vn 0.9971 0.0000 0.0760
vn -0.9971 0.0000 0.0760
vn 0.0000 0.9991 0.0428
vn 0.0000 -0.9991 0.0428
usemtl None
s off
f 9/1/1 10/2/1 4/3/1 3/4/1
f 3/4/2 4/3/2 8/5/2 7/6/2
f 7/6/3 8/5/3 11/7/3 12/8/3
f 5/9/4 6/10/4 2/11/4 1/12/4
f 3/13/5 7/6/5 12/8/5 9/14/5
f 8/5/6 4/15/6 10/16/6 11/7/6
f 13/17/4 14/18/4 10/19/4 9/20/4
f 15/21/4 16/22/4 12/8/4 11/7/4
f 16/22/4 13/17/4 9/20/4 12/8/4
f 14/18/4 15/21/4 11/7/4 10/19/4
f 1/12/7 2/11/7 14/18/7 13/17/7
f 6/10/8 5/9/8 16/22/8 15/21/8
f 5/9/9 1/12/9 13/17/9 16/22/9
f 2/11/10 6/10/10 15/21/10 14/18/10
